/vscmnt/brussel_pixiu_data/_data_brussel/112/vsc11236/PredSimResults/SUBJ10mtu3D/worker9.mot
version=1
nRows=8
nColumns=50
inDegrees=yes
endheader
                time	         pelvis_tilt	         pelvis_list	     pelvis_rotation	           pelvis_tx	           pelvis_ty	           pelvis_tz	       hip_flexion_r	     hip_adduction_r	      hip_rotation_r	        knee_angle_r	       ankle_angle_r	         mtp_angle_r	       hip_flexion_l	     hip_adduction_l	      hip_rotation_l	        knee_angle_l	       ankle_angle_l	         mtp_angle_l	    lumbar_extension	      lumbar_bending	     lumbar_rotation	 ercspn_r/activation	 intobl_r/activation	 extobl_r/activation	    abd_r/activation	    add_r/activation	hamstrings_r/activation	bifemsh_r/activation	glut_max_r/activation	iliopsoas_r/activation	rect_fem_r/activation	  vasti_r/activation	gastroc_r/activation	 soleus_r/activation	tib_ant_r/activation	 ercspn_l/activation	 intobl_l/activation	 extobl_l/activation	    abd_l/activation	    add_l/activation	hamstrings_l/activation	bifemsh_l/activation	glut_max_l/activation	iliopsoas_l/activation	rect_fem_l/activation	  vasti_l/activation	gastroc_l/activation	 soleus_l/activation	tib_ant_l/activation	
          1.66289411	         -5.21124492	          0.85524246	         -8.11610063	          2.01210187	          0.82229096	          0.01313775	        -15.75524708	         -0.24355529	          2.59864797	         -4.53727583	          7.38868483	         26.57816313	         31.57822266	         -1.70530513	         -6.09982582	         -5.90672577	          2.68747052	          0.26751005	         -6.32534678	          0.91179248	          5.38646013	          0.06309059	          0.01000033	          0.01000109	          0.05892557	          0.01000141	          0.01478377	          0.22910946	          0.01000260	          0.31322684	          0.01000599	          0.01000062	          0.30990171	          0.22717396	          0.02334173	          0.10770865	          0.18952455	          0.01000224	          0.01184784	          0.09455487	          0.10885431	          0.28559156	          0.01922086	          0.08044737	          0.01000612	          0.01000283	          0.01000372	          0.01000071	          0.29360211	
          1.67398007	         -5.24111032	          0.83669444	         -8.23410479	          2.02758005	          0.82094096	          0.01314845	        -15.91122584	         -0.33218706	          2.30934444	         -6.11000757	          6.73096917	         28.21261905	         31.41555844	         -1.56897469	         -5.78652793	         -7.32725928	          2.39578400	          0.26606725	         -6.15436716	          0.48934614	          5.62561861	          0.09673579	          0.01000081	          0.01000217	          0.04973609	          0.01001791	          0.01434766	          0.19337996	          0.01185119	          0.26437961	          0.01000537	          0.01000158	          0.27708719	          0.21959613	          0.01970161	          0.09091268	          0.15996874	          0.01000354	          0.01000052	          0.12404258	          0.09267192	          0.25583439	          0.05817957	          0.06790162	          0.01000293	          0.01000049	          0.01768021	          0.01187101	          0.31556365	
          1.68506603	         -5.26265726	          0.82761257	         -8.30599521	          2.04333538	          0.81977333	          0.01308620	        -15.96006456	         -0.42855018	          1.97687462	         -7.90383839	          5.95450196	         29.78751930	         31.12291642	         -1.44276548	         -5.43904111	         -8.69308383	          1.96720532	          0.25710014	         -5.96583944	          0.04561571	          5.84376913	          0.10605295	          0.01000034	          0.01000154	          0.04197972	          0.01000339	          0.01222334	          0.16322246	          0.01000429	          0.22314992	          0.01000521	          0.01000109	          0.23387584	          0.20649422	          0.01662918	          0.08437260	          0.13502183	          0.01000174	          0.03747805	          0.10470027	          0.08144816	          0.21594059	          0.08920782	          0.05731236	          0.01000108	          0.01000032	          0.01492316	          0.01001987	          0.40582700	
          1.69615199	         -5.27763810	          0.81566525	         -8.32784696	          2.05916739	          0.81891768	          0.01291110	        -15.82867599	         -0.51897218	          1.60243599	        -10.01715360	          5.06044454	         31.22425044	         30.77427247	         -1.31262077	         -5.16223744	         -9.93073011	          1.40819543	          0.24372896	         -5.78410865	         -0.39758390	          6.03527795	          0.13436106	          0.01000041	          0.01000132	          0.03543295	          0.01000441	          0.01438839	          0.13776805	          0.01000857	          0.18834995	          0.01000729	          0.01000269	          0.19740269	          0.19047914	          0.01403592	          0.09747423	          0.11396515	          0.01000182	          0.08774495	          0.13710509	          0.06875671	          0.18226563	          0.10745770	          0.04837451	          0.01000141	          0.01000061	          0.01259610	          0.01000044	          0.46224465	
          1.70723795	         -5.28566463	          0.80101344	         -8.30487754	          2.07493591	          0.81848229	          0.01262844	        -15.46333732	         -0.60527996	          1.18284955	        -12.51857009	          4.05817404	         32.39415936	         30.44144522	         -1.17510050	         -4.94826843	        -11.21219572	          0.95180005	          0.22784986	         -5.62045144	         -0.83794393	          6.19983720	          0.16656405	          0.01000053	          0.01000113	          0.02990716	          0.02784932	          0.02224133	          0.11628331	          0.01001101	          0.15897705	          0.01000507	          0.01000356	          0.16661751	          0.17025248	          0.01184714	          0.10628082	          0.09619224	          0.01000182	          0.12855133	          0.17947891	          0.06044411	          0.15384183	          0.12399741	          0.04083052	          0.01000160	          0.01000077	          0.01063216	          0.01000078	          0.48345508	
          1.71832391	         -5.28657002	          0.78356247	         -8.24154901	          2.09054924	          0.81855252	          0.01224976	        -14.82277479	         -0.69069137	          0.70604928	        -15.45789515	          2.96456671	         33.11852783	         30.15249061	         -1.03340369	         -4.78082148	        -12.60076437	          0.71771634	          0.21092169	         -5.47819878	         -1.27228222	          6.33864694	          0.19561922	          0.01000056	          0.01000114	          0.02524312	          0.07043803	          0.01907789	          0.09814921	          0.01000091	          0.13418487	          0.01000285	          0.01000101	          0.14063331	          0.14370200	          0.01000065	          0.10740472	          0.08119102	          0.01000159	          0.15739514	          0.21608576	          0.05431136	          0.12985066	          0.13457517	          0.03446302	          0.01000190	          0.02386774	          0.01000157	          0.01000127	          0.47205886	
          1.72940987	         -5.28133496	          0.75859560	         -8.13840503	          2.10593395	          0.81920777	          0.01178995	        -13.86953661	         -0.77565490	          0.15381782	        -18.87663471	          1.78316114	         33.20941931	         29.88363963	         -0.89145296	         -4.64873132	        -14.04693484	          0.74561671	          0.19549346	         -5.35965047	         -1.69287748	          6.45130804	          0.20847962	          0.01000066	          0.01000114	          0.02130644	          0.13283624	          0.01642097	          0.08284330	          0.01000056	          0.11325904	          0.01000232	          0.01000060	          0.11870138	          0.12129157	          0.01000053	          0.10951464	          0.06852925	          0.01000157	          0.17209288	          0.24571712	          0.05350716	          0.10960100	          0.13205107	          0.02908855	          0.01000176	          0.04462946	          0.01000154	          0.01000083	          0.44600002	
          1.74049583	         -5.27133670	          0.72030282	         -7.99591645	          2.12107275	          0.82044941	          0.01127361	        -12.59227900	         -0.86450102	         -0.47627226	        -22.75115048	          0.40672768	         32.65162135	         29.56553410	         -0.74862065	         -4.52780559	        -15.41966426	          1.02135854	          0.18754770	         -5.26186756	         -2.09339080	          6.53605535	          0.21002404	          0.01000083	          0.01000126	          0.01798370	          0.19268912	          0.01613467	          0.06992472	          0.01000041	          0.09559660	          0.01000184	          0.01000037	          0.10018976	          0.10237601	          0.01000045	          0.10607974	          0.05784210	          0.01000164	          0.17697774	          0.25892174	          0.05410188	          0.09250938	          0.12461274	          0.02455223	          0.01000159	          0.06249593	          0.01000147	          0.01000084	          0.39906008	
